STARTFONT 2.1
FONT -sun-timmons-bold-r-normal--14-140-75-75-p-81-adobe-fontspecific
SIZE 14 75 75
FONTBOUNDINGBOX 17 17 -3 -3

STARTPROPERTIES 28
FOUNDRY "sun"
FAMILY_NAME "timmons"
WEIGHT_NAME "bold"
SLANT "r"
SETWIDTH_NAME "normal"
ADD_STYLE_NAME ""
PIXEL_SIZE 15
POINT_SIZE 140
RESOLUTION_X 75
RESOLUTION_Y 75
SPACING "p"
AVERAGE_WIDTH 81
CHARSET_REGISTRY "adobe"
CHARSET_ENCODING "fontspecific"
COPYRIGHT "© 1999 Sun Microsystems, Inc."
RAW_PIXELSIZE 1000
RAW_POINTSIZE 964
RAW_ASCENT 950
RAW_DESCENT 196
RAW_AVERAGE_WIDTH 5542
FACE_NAME "TimmonsBoldmonsB5"
_XMBDFED_INFO "Edited with xmbdfed 2.4."
WEIGHT 10
X_HEIGHT -1
QUAD_WIDTH 8
DEFAULT_CHAR 4
FONT_DESCENT 3
FONT_ASCENT 14
ENDPROPERTIES

CHARS 214

STARTCHAR char32
ENCODING 32
SWIDTH 24 0
DWIDTH 4 0
BBX 0 0 0 0
BITMAP
ENDCHAR

STARTCHAR char33
ENCODING 33
SWIDTH 24 0
DWIDTH 4 0
BBX 2 10 1 0
BITMAP
C0
C0
C0
C0
40
40
40
00
C0
C0
ENDCHAR

STARTCHAR char34
ENCODING 34
SWIDTH 43 0
DWIDTH 7 0
BBX 5 4 1 6
BITMAP
D8
D8
48
48
ENDCHAR

STARTCHAR char35
ENCODING 35
SWIDTH 49 0
DWIDTH 8 0
BBX 7 11 0 0
BITMAP
14
24
24
7E
24
24
24
FE
68
48
48
ENDCHAR

STARTCHAR char36
ENCODING 36
SWIDTH 55 0
DWIDTH 9 0
BBX 7 14 1 -2
BITMAP
30
38
54
D4
F4
F0
7C
7E
BE
B6
F6
FC
30
30
ENDCHAR

STARTCHAR char37
ENCODING 37
SWIDTH 5 0
DWIDTH 11 0
BBX 11 10 0 0
BITMAP
E300
B200
B600
B580
BD40
6B60
1B60
1B60
3360
31C0
ENDCHAR

STARTCHAR char38
ENCODING 38
SWIDTH 5 0
DWIDTH 11 0
BBX 10 10 0 0
BITMAP
1E00
3600
3600
3C00
3BC0
6900
CF00
C600
E7C0
7B80
ENDCHAR

STARTCHAR char39
ENCODING 39
SWIDTH 24 0
DWIDTH 4 0
BBX 2 4 1 6
BITMAP
80
80
C0
C0
ENDCHAR

STARTCHAR char40
ENCODING 40
SWIDTH 30 0
DWIDTH 5 0
BBX 4 12 1 -2
BITMAP
20
40
40
C0
C0
C0
C0
C0
40
40
20
10
ENDCHAR

STARTCHAR char41
ENCODING 41
SWIDTH 30 0
DWIDTH 5 0
BBX 4 13 0 -2
BITMAP
80
40
20
20
30
30
30
30
30
20
20
40
80
ENDCHAR

STARTCHAR char42
ENCODING 42
SWIDTH 43 0
DWIDTH 7 0
BBX 6 6 0 5
BITMAP
10
30
7C
74
78
48
ENDCHAR

STARTCHAR char43
ENCODING 43
SWIDTH 61 0
DWIDTH 10 0
BBX 9 9 0 0
BITMAP
0C00
0C00
0C00
0C00
FF80
0C00
0C00
0C00
0C00
ENDCHAR

STARTCHAR char44
ENCODING 44
SWIDTH 24 0
DWIDTH 4 0
BBX 2 4 1 -2
BITMAP
C0
C0
40
40
ENDCHAR

STARTCHAR char45
ENCODING 45
SWIDTH 36 0
DWIDTH 6 0
BBX 5 1 0 4
BITMAP
F8
ENDCHAR

STARTCHAR char46
ENCODING 46
SWIDTH 24 0
DWIDTH 4 0
BBX 2 2 1 0
BITMAP
C0
C0
ENDCHAR

STARTCHAR char47
ENCODING 47
SWIDTH 36 0
DWIDTH 6 0
BBX 6 10 0 0
BITMAP
08
18
10
10
30
20
20
60
40
C0
ENDCHAR

STARTCHAR char48
ENCODING 48
SWIDTH 43 0
DWIDTH 7 0
BBX 6 10 0 0
BITMAP
38
48
CC
CC
CC
CC
CC
CC
48
38
ENDCHAR

STARTCHAR char49
ENCODING 49
SWIDTH 43 0
DWIDTH 7 0
BBX 5 10 1 0
BITMAP
60
E0
60
60
60
60
60
60
60
F8
ENDCHAR

STARTCHAR char50
ENCODING 50
SWIDTH 43 0
DWIDTH 7 0
BBX 7 10 0 0
BITMAP
78
FC
0C
0C
18
10
20
22
7C
FC
ENDCHAR

STARTCHAR char51
ENCODING 51
SWIDTH 43 0
DWIDTH 7 0
BBX 6 10 0 0
BITMAP
78
9C
08
18
38
1C
0C
0C
C8
F0
ENDCHAR

STARTCHAR char52
ENCODING 52
SWIDTH 43 0
DWIDTH 7 0
BBX 6 10 0 0
BITMAP
08
18
38
38
58
98
9C
FC
18
18
ENDCHAR

STARTCHAR char53
ENCODING 53
SWIDTH 43 0
DWIDTH 7 0
BBX 7 10 0 0
BITMAP
3E
7E
40
78
FC
0E
06
06
CC
F0
ENDCHAR

STARTCHAR char54
ENCODING 54
SWIDTH 43 0
DWIDTH 7 0
BBX 6 10 0 0
BITMAP
18
30
60
F8
E8
CC
CC
CC
4C
38
ENDCHAR

STARTCHAR char55
ENCODING 55
SWIDTH 43 0
DWIDTH 7 0
BBX 6 10 0 0
BITMAP
FC
FC
8C
08
08
08
10
10
10
30
ENDCHAR

STARTCHAR char56
ENCODING 56
SWIDTH 43 0
DWIDTH 7 0
BBX 6 10 0 0
BITMAP
78
CC
EC
F8
78
5C
CC
CC
CC
78
ENDCHAR

STARTCHAR char57
ENCODING 57
SWIDTH 43 0
DWIDTH 7 0
BBX 6 10 0 0
BITMAP
78
C8
CC
CC
EC
7C
08
18
10
60
ENDCHAR

STARTCHAR char58
ENCODING 58
SWIDTH 24 0
DWIDTH 4 0
BBX 2 7 1 0
BITMAP
C0
C0
00
00
00
C0
C0
ENDCHAR

STARTCHAR char59
ENCODING 59
SWIDTH 24 0
DWIDTH 4 0
BBX 3 9 1 -2
BITMAP
C0
C0
00
00
00
C0
E0
40
40
ENDCHAR

STARTCHAR char60
ENCODING 60
SWIDTH 55 0
DWIDTH 9 0
BBX 8 7 0 0
BITMAP
03
1C
60
C0
30
0C
03
ENDCHAR

STARTCHAR char61
ENCODING 61
SWIDTH 61 0
DWIDTH 10 0
BBX 9 4 0 2
BITMAP
FF80
0000
0000
FF80
ENDCHAR

STARTCHAR char62
ENCODING 62
SWIDTH 55 0
DWIDTH 9 0
BBX 8 7 0 0
BITMAP
E0
18
06
03
0C
30
C0
ENDCHAR

STARTCHAR char63
ENCODING 63
SWIDTH 43 0
DWIDTH 7 0
BBX 5 10 1 0
BITMAP
70
D8
D8
18
30
20
60
00
20
20
ENDCHAR

STARTCHAR char64
ENCODING 64
SWIDTH 36 0
DWIDTH 16 0
BBX 11 11 2 0
BITMAP
0F00
3180
6040
4FE0
D160
F160
F340
F240
7F80
30C0
1F00
ENDCHAR

STARTCHAR char65
ENCODING 65
SWIDTH 61 0
DWIDTH 10 0
BBX 9 10 0 0
BITMAP
0800
0800
1C00
1C00
2E00
2600
3E00
4700
4300
C780
ENDCHAR

STARTCHAR char66
ENCODING 66
SWIDTH 61 0
DWIDTH 10 0
BBX 9 10 0 0
BITMAP
FE00
6300
6300
6300
7E00
6700
6380
6380
6300
FE00
ENDCHAR

STARTCHAR char67
ENCODING 67
SWIDTH 61 0
DWIDTH 10 0
BBX 8 11 1 0
BITMAP
01
3F
61
41
C0
C0
C0
C0
41
63
3C
ENDCHAR

STARTCHAR char68
ENCODING 68
SWIDTH 5 0
DWIDTH 11 0
BBX 10 10 0 0
BITMAP
FF00
6180
6180
60C0
60C0
60C0
60C0
6180
6380
FE00
ENDCHAR

STARTCHAR char69
ENCODING 69
SWIDTH 61 0
DWIDTH 10 0
BBX 8 10 0 0
BITMAP
FF
61
64
64
7C
64
64
61
61
FF
ENDCHAR

STARTCHAR char70
ENCODING 70
SWIDTH 55 0
DWIDTH 9 0
BBX 9 10 0 0
BITMAP
FF00
6080
6400
6400
7C00
6400
6400
6000
6000
F000
ENDCHAR

STARTCHAR char71
ENCODING 71
SWIDTH 5 0
DWIDTH 11 0
BBX 10 10 0 0
BITMAP
3F80
6080
6080
C000
C000
C3C0
C180
6180
6180
1F80
ENDCHAR

STARTCHAR char72
ENCODING 72
SWIDTH 11 0
DWIDTH 12 0
BBX 11 10 0 0
BITMAP
73E0
6180
6180
6180
7F80
6180
6180
6180
6180
F1C0
ENDCHAR

STARTCHAR char73
ENCODING 73
SWIDTH 30 0
DWIDTH 5 0
BBX 5 10 0 0
BITMAP
78
60
60
60
60
60
60
60
60
F8
ENDCHAR

STARTCHAR char74
ENCODING 74
SWIDTH 49 0
DWIDTH 8 0
BBX 7 10 0 0
BITMAP
0E
0C
0C
0C
0C
0C
0C
CC
CC
78
ENDCHAR

STARTCHAR char75
ENCODING 75
SWIDTH 61 0
DWIDTH 10 0
BBX 9 10 0 0
BITMAP
6780
6200
6400
6C00
7C00
6C00
6600
6600
6300
F780
ENDCHAR

STARTCHAR char76
ENCODING 76
SWIDTH 61 0
DWIDTH 10 0
BBX 9 10 0 0
BITMAP
7800
6000
6000
6000
6000
6000
6080
6080
6100
FF00
ENDCHAR

STARTCHAR char77
ENCODING 77
SWIDTH 23 0
DWIDTH 14 0
BBX 13 10 0 0
BITMAP
F078
F0E0
D8E0
D8E0
DD60
CD60
CE60
CE60
C460
E4F8
ENDCHAR

STARTCHAR char78
ENCODING 78
SWIDTH 5 0
DWIDTH 11 0
BBX 10 10 0 0
BITMAP
7180
F0C0
D8C0
DCC0
CEC0
C6C0
C3C0
C3C0
C1C0
E0C0
ENDCHAR

STARTCHAR char79
ENCODING 79
SWIDTH 11 0
DWIDTH 12 0
BBX 10 10 0 0
BITMAP
3F00
6180
E0C0
C0C0
C0C0
C0C0
E0C0
6080
7180
1E00
ENDCHAR

STARTCHAR char80
ENCODING 80
SWIDTH 55 0
DWIDTH 9 0
BBX 8 10 0 0
BITMAP
FE
63
63
63
7E
60
60
60
60
F8
ENDCHAR

STARTCHAR char81
ENCODING 81
SWIDTH 11 0
DWIDTH 12 0
BBX 9 13 1 -3
BITMAP
3E00
6300
C180
C180
C180
C180
C180
4100
6300
3600
0C00
0E00
0300
ENDCHAR

STARTCHAR char82
ENCODING 82
SWIDTH 61 0
DWIDTH 10 0
BBX 9 10 0 0
BITMAP
FE00
6300
6300
6300
7C00
6E00
6600
6600
6300
F380
ENDCHAR

STARTCHAR char83
ENCODING 83
SWIDTH 55 0
DWIDTH 9 0
BBX 8 10 0 0
BITMAP
7E
C2
C2
F8
7E
1F
87
83
C3
BE
ENDCHAR

STARTCHAR char84
ENCODING 84
SWIDTH 55 0
DWIDTH 9 0
BBX 9 10 0 0
BITMAP
FF80
9980
9980
1800
1800
1800
1800
1800
1800
7E00
ENDCHAR

STARTCHAR char85
ENCODING 85
SWIDTH 5 0
DWIDTH 11 0
BBX 10 10 0 0
BITMAP
6080
6080
6080
6080
6080
6080
60C0
60C0
7180
1E00
ENDCHAR

STARTCHAR char86
ENCODING 86
SWIDTH 61 0
DWIDTH 10 0
BBX 8 10 0 0
BITMAP
71
62
22
32
34
1C
18
18
08
08
ENDCHAR

STARTCHAR char87
ENCODING 87
SWIDTH 23 0
DWIDTH 14 0
BBX 14 10 -1 0
BITMAP
FFC4
7184
71C8
31C8
3AD0
1AD0
1C60
0C60
0C60
0840
ENDCHAR

STARTCHAR char88
ENCODING 88
SWIDTH 55 0
DWIDTH 9 0
BBX 8 10 0 0
BITMAP
F7
34
34
18
18
18
2C
2C
46
EF
ENDCHAR

STARTCHAR char89
ENCODING 89
SWIDTH 61 0
DWIDTH 10 0
BBX 9 10 0 0
BITMAP
F180
6100
6200
3200
3C00
1800
1800
1800
1800
7C00
ENDCHAR

STARTCHAR char90
ENCODING 90
SWIDTH 61 0
DWIDTH 10 0
BBX 9 10 0 0
BITMAP
7F00
8700
8E00
0C00
1800
3800
3080
7080
E080
FF80
ENDCHAR

STARTCHAR char91
ENCODING 91
SWIDTH 24 0
DWIDTH 4 0
BBX 3 12 1 -2
BITMAP
E0
C0
C0
C0
C0
C0
C0
C0
C0
C0
C0
E0
ENDCHAR

STARTCHAR char92
ENCODING 92
SWIDTH 24 0
DWIDTH 4 0
BBX 4 11 0 0
BITMAP
80
80
80
40
40
40
20
20
20
10
10
ENDCHAR

STARTCHAR char93
ENCODING 93
SWIDTH 24 0
DWIDTH 4 0
BBX 3 12 0 -2
BITMAP
60
60
60
60
60
60
60
60
60
60
60
E0
ENDCHAR

STARTCHAR char94
ENCODING 94
SWIDTH 0 0
DWIDTH 0 0
BBX 6 2 -3 11
BITMAP
78
48
ENDCHAR

STARTCHAR char95
ENCODING 95
SWIDTH 55 0
DWIDTH 9 0
BBX 8 1 0 -2
BITMAP
FF
ENDCHAR

STARTCHAR char96
ENCODING 96
SWIDTH 0 0
DWIDTH 0 0
BBX 3 2 -2 8
BITMAP
C0
40
ENDCHAR

STARTCHAR char97
ENCODING 97
SWIDTH 43 0
DWIDTH 7 0
BBX 7 7 0 0
BITMAP
78
CC
CC
3C
4C
DC
EC
ENDCHAR

STARTCHAR char98
ENCODING 98
SWIDTH 49 0
DWIDTH 8 0
BBX 6 10 0 0
BITMAP
E0
60
60
78
6C
6C
6C
6C
68
58
ENDCHAR

STARTCHAR char99
ENCODING 99
SWIDTH 36 0
DWIDTH 6 0
BBX 6 7 0 0
BITMAP
38
4C
C4
C0
E0
E4
78
ENDCHAR

STARTCHAR char100
ENCODING 100
SWIDTH 49 0
DWIDTH 8 0
BBX 7 10 0 0
BITMAP
1C
0C
0C
7C
CC
CC
CC
CC
EC
7E
ENDCHAR

STARTCHAR char101
ENCODING 101
SWIDTH 43 0
DWIDTH 7 0
BBX 6 7 0 0
BITMAP
38
4C
CC
FC
C0
E4
78
ENDCHAR

STARTCHAR char102
ENCODING 102
SWIDTH 24 0
DWIDTH 4 0
BBX 5 10 0 0
BITMAP
38
68
60
E0
60
60
60
60
60
E0
ENDCHAR

STARTCHAR char103
ENCODING 103
SWIDTH 43 0
DWIDTH 7 0
BBX 6 9 0 -2
BITMAP
7C
CC
CC
CC
78
40
FC
7C
FC
ENDCHAR

STARTCHAR char104
ENCODING 104
SWIDTH 49 0
DWIDTH 8 0
BBX 7 10 0 0
BITMAP
60
60
60
78
6C
6C
6C
6C
6C
EE
ENDCHAR

STARTCHAR char105
ENCODING 105
SWIDTH 24 0
DWIDTH 4 0
BBX 4 10 0 0
BITMAP
60
60
00
E0
60
60
60
60
60
F0
ENDCHAR

STARTCHAR char106
ENCODING 106
SWIDTH 24 0
DWIDTH 4 0
BBX 5 12 -2 -2
BITMAP
18
18
00
18
18
18
18
18
18
18
D8
F8
ENDCHAR

STARTCHAR char107
ENCODING 107
SWIDTH 49 0
DWIDTH 8 0
BBX 7 11 0 0
BITMAP
E0
60
60
60
6E
64
68
78
6C
6C
EE
ENDCHAR

STARTCHAR char108
ENCODING 108
SWIDTH 24 0
DWIDTH 4 0
BBX 3 10 0 0
BITMAP
60
60
60
60
60
60
60
60
60
E0
ENDCHAR

STARTCHAR char109
ENCODING 109
SWIDTH 11 0
DWIDTH 12 0
BBX 11 7 0 0
BITMAP
F980
6EC0
6CC0
6CC0
6CC0
6CC0
EFE0
ENDCHAR

STARTCHAR char110
ENCODING 110
SWIDTH 49 0
DWIDTH 8 0
BBX 7 7 0 0
BITMAP
F8
6C
6C
6C
6C
6C
EE
ENDCHAR

STARTCHAR char111
ENCODING 111
SWIDTH 43 0
DWIDTH 7 0
BBX 6 7 0 0
BITMAP
78
CC
CC
CC
CC
68
38
ENDCHAR

STARTCHAR char112
ENCODING 112
SWIDTH 49 0
DWIDTH 8 0
BBX 6 9 0 -2
BITMAP
F8
6C
6C
6C
6C
6C
78
60
E0
ENDCHAR

STARTCHAR char113
ENCODING 113
SWIDTH 49 0
DWIDTH 8 0
BBX 7 10 0 -3
BITMAP
74
4C
CC
CC
CC
CC
7C
0C
0C
1E
ENDCHAR

STARTCHAR char114
ENCODING 114
SWIDTH 30 0
DWIDTH 5 0
BBX 5 7 0 0
BITMAP
F8
68
60
60
60
60
E0
ENDCHAR

STARTCHAR char115
ENCODING 115
SWIDTH 36 0
DWIDTH 6 0
BBX 5 7 0 0
BITMAP
78
C8
E0
78
38
98
F8
ENDCHAR

STARTCHAR char116
ENCODING 116
SWIDTH 24 0
DWIDTH 4 0
BBX 4 9 0 0
BITMAP
20
60
F0
60
60
60
60
60
70
ENDCHAR

STARTCHAR char117
ENCODING 117
SWIDTH 49 0
DWIDTH 8 0
BBX 7 7 0 0
BITMAP
CC
CC
CC
CC
CC
DC
EE
ENDCHAR

STARTCHAR char118
ENCODING 118
SWIDTH 43 0
DWIDTH 7 0
BBX 6 7 0 0
BITMAP
FC
68
78
38
30
30
10
ENDCHAR

STARTCHAR char119
ENCODING 119
SWIDTH 61 0
DWIDTH 10 0
BBX 9 7 0 0
BITMAP
FD80
6D00
6D00
3D00
2600
2400
2400
ENDCHAR

STARTCHAR char120
ENCODING 120
SWIDTH 43 0
DWIDTH 7 0
BBX 7 7 0 0
BITMAP
EC
68
30
30
38
58
DE
ENDCHAR

STARTCHAR char121
ENCODING 121
SWIDTH 43 0
DWIDTH 7 0
BBX 6 9 0 -2
BITMAP
EC
68
68
38
30
30
10
F0
C0
ENDCHAR

STARTCHAR char122
ENCODING 122
SWIDTH 36 0
DWIDTH 6 0
BBX 7 7 -1 0
BITMAP
FC
CC
18
18
30
62
7C
ENDCHAR

STARTCHAR char123
ENCODING 123
SWIDTH 30 0
DWIDTH 5 0
BBX 3 13 1 -3
BITMAP
E0
C0
40
40
40
80
80
C0
C0
C0
C0
C0
60
ENDCHAR

STARTCHAR char124
ENCODING 124
SWIDTH 24 0
DWIDTH 4 0
BBX 2 11 1 0
BITMAP
C0
C0
C0
C0
C0
C0
C0
C0
C0
C0
C0
ENDCHAR

STARTCHAR char125
ENCODING 125
SWIDTH 30 0
DWIDTH 5 0
BBX 3 13 1 -3
BITMAP
C0
40
40
40
40
20
20
40
40
40
40
40
80
ENDCHAR

STARTCHAR char126
ENCODING 126
SWIDTH 0 0
DWIDTH 0 0
BBX 6 2 -3 11
BITMAP
78
90
ENDCHAR

STARTCHAR char128
ENCODING 128
SWIDTH 43 0
DWIDTH 7 0
BBX 8 10 0 0
BITMAP
1E
33
23
60
FC
FC
60
60
33
1C
ENDCHAR

STARTCHAR char130
ENCODING 130
SWIDTH 24 0
DWIDTH 4 0
BBX 2 4 1 -2
BITMAP
C0
C0
40
40
ENDCHAR

STARTCHAR char131
ENCODING 131
SWIDTH 0 0
DWIDTH 0 0
BBX 6 2 -3 11
BITMAP
78
48
ENDCHAR

STARTCHAR char132
ENCODING 132
SWIDTH 43 0
DWIDTH 7 0
BBX 5 4 1 -2
BITMAP
D8
D8
48
48
ENDCHAR

STARTCHAR char133
ENCODING 133
SWIDTH 36 0
DWIDTH 16 0
BBX 12 2 1 0
BITMAP
C630
C630
ENDCHAR

STARTCHAR char134
ENCODING 134
SWIDTH 43 0
DWIDTH 7 0
BBX 6 13 0 -3
BITMAP
30
30
FC
FC
30
30
30
30
30
30
30
30
30
ENDCHAR

STARTCHAR char135
ENCODING 135
SWIDTH 29 0
DWIDTH 15 0
BBX 0 0 0 0
BITMAP
ENDCHAR

STARTCHAR char136
ENCODING 136
SWIDTH 0 0
DWIDTH 0 0
BBX 4 2 -2 8
BITMAP
60
B0
ENDCHAR

STARTCHAR char137
ENCODING 137
SWIDTH 29 0
DWIDTH 15 0
BBX 0 0 0 0
BITMAP
ENDCHAR

STARTCHAR char138
ENCODING 138
SWIDTH 29 0
DWIDTH 15 0
BBX 0 0 0 0
BITMAP
ENDCHAR

STARTCHAR char139
ENCODING 139
SWIDTH 30 0
DWIDTH 5 0
BBX 3 4 1 2
BITMAP
60
C0
C0
60
ENDCHAR

STARTCHAR char140
ENCODING 140
SWIDTH 29 0
DWIDTH 15 0
BBX 14 10 0 0
BITMAP
3FFC
618C
E1BC
C1B0
C1F0
C1B0
C1B0
4188
6388
1FF8
ENDCHAR

STARTCHAR char141
ENCODING 141
SWIDTH 29 0
DWIDTH 15 0
BBX 0 0 0 0
BITMAP
ENDCHAR

STARTCHAR char143
ENCODING 143
SWIDTH 29 0
DWIDTH 15 0
BBX 0 0 0 0
BITMAP
ENDCHAR

STARTCHAR char145
ENCODING 145
SWIDTH 24 0
DWIDTH 4 0
BBX 3 4 0 6
BITMAP
40
C0
E0
60
ENDCHAR

STARTCHAR char146
ENCODING 146
SWIDTH 24 0
DWIDTH 4 0
BBX 2 4 1 6
BITMAP
C0
C0
40
40
ENDCHAR

STARTCHAR char147
ENCODING 147
SWIDTH 43 0
DWIDTH 7 0
BBX 5 4 1 6
BITMAP
90
90
D8
D8
ENDCHAR

STARTCHAR char148
ENCODING 148
SWIDTH 43 0
DWIDTH 7 0
BBX 5 4 1 6
BITMAP
D8
D8
48
48
ENDCHAR

STARTCHAR char149
ENCODING 149
SWIDTH 30 0
DWIDTH 5 0
BBX 4 4 0 3
BITMAP
60
F0
F0
60
ENDCHAR

STARTCHAR char150
ENCODING 150
SWIDTH 43 0
DWIDTH 7 0
BBX 6 2 0 3
BITMAP
FC
FC
ENDCHAR

STARTCHAR char151
ENCODING 151
SWIDTH 61 0
DWIDTH 10 0
BBX 9 1 0 4
BITMAP
FF80
ENDCHAR

STARTCHAR char152
ENCODING 152
SWIDTH 0 0
DWIDTH 0 0
BBX 6 2 -3 8
BITMAP
78
98
ENDCHAR

STARTCHAR char153
ENCODING 153
SWIDTH 17 0
DWIDTH 13 0
BBX 12 6 0 4
BITMAP
FE30
CE30
4350
4370
42F0
66B0
ENDCHAR

STARTCHAR char154
ENCODING 154
SWIDTH 29 0
DWIDTH 15 0
BBX 0 0 0 0
BITMAP
ENDCHAR

STARTCHAR char155
ENCODING 155
SWIDTH 30 0
DWIDTH 5 0
BBX 3 4 1 2
BITMAP
C0
60
60
80
ENDCHAR

STARTCHAR char156
ENCODING 156
SWIDTH 5 0
DWIDTH 11 0
BBX 10 7 0 0
BITMAP
3B00
4C80
CCC0
CFC0
CC00
4EC0
7F00
ENDCHAR

STARTCHAR char157
ENCODING 157
SWIDTH 29 0
DWIDTH 15 0
BBX 0 0 0 0
BITMAP
ENDCHAR

STARTCHAR char159
ENCODING 159
SWIDTH 61 0
DWIDTH 10 0
BBX 9 13 0 0
BITMAP
6600
6600
0000
F180
6100
6200
3200
3C00
1800
1800
1800
1800
3C00
ENDCHAR

STARTCHAR char160
ENCODING 160
SWIDTH 24 0
DWIDTH 4 0
BBX 0 0 0 0
BITMAP
ENDCHAR

STARTCHAR char161
ENCODING 161
SWIDTH 24 0
DWIDTH 4 0
BBX 2 10 1 0
BITMAP
C0
C0
00
40
40
40
C0
C0
C0
C0
ENDCHAR

STARTCHAR char162
ENCODING 162
SWIDTH 36 0
DWIDTH 6 0
BBX 6 11 0 -2
BITMAP
10
10
70
58
D8
D0
F0
EC
70
20
20
ENDCHAR

STARTCHAR char163
ENCODING 163
SWIDTH 49 0
DWIDTH 8 0
BBX 8 11 -1 0
BITMAP
06
0B
1B
18
18
3E
08
08
F9
DF
F6
ENDCHAR

STARTCHAR char164
ENCODING 164
SWIDTH 0 0
DWIDTH 0 0
BBX 4 2 -1 11
BITMAP
60
C0
ENDCHAR

STARTCHAR char165
ENCODING 165
SWIDTH 0 0
DWIDTH 0 0
BBX 6 2 -3 11
BITMAP
48
78
ENDCHAR

STARTCHAR char166
ENCODING 166
SWIDTH 29 0
DWIDTH 15 0
BBX 0 0 0 0
BITMAP
ENDCHAR

STARTCHAR char167
ENCODING 167
SWIDTH 43 0
DWIDTH 7 0
BBX 6 12 0 -2
BITMAP
38
6C
60
38
5C
4C
64
74
38
1C
6C
38
ENDCHAR

STARTCHAR char168
ENCODING 168
SWIDTH 0 0
DWIDTH 0 0
BBX 6 2 -3 8
BITMAP
CC
CC
ENDCHAR

STARTCHAR char169
ENCODING 169
SWIDTH 11 0
DWIDTH 12 0
BBX 11 10 0 0
BITMAP
0E00
3180
4F40
5140
F060
F060
F060
5E40
2080
1F00
ENDCHAR

STARTCHAR char170
ENCODING 170
SWIDTH 0 0
DWIDTH 0 0
BBX 6 2 -3 11
BITMAP
CC
CC
ENDCHAR

STARTCHAR char171
ENCODING 171
SWIDTH 49 0
DWIDTH 8 0
BBX 6 7 0 1
BITMAP
14
24
6C
58
48
24
24
ENDCHAR

STARTCHAR char172
ENCODING 172
SWIDTH 5 0
DWIDTH 11 0
BBX 10 4 0 0
BITMAP
FFC0
00C0
00C0
00C0
ENDCHAR

STARTCHAR char173
ENCODING 173
SWIDTH 29 0
DWIDTH 15 0
BBX 0 0 0 0
BITMAP
ENDCHAR

STARTCHAR char174
ENCODING 174
SWIDTH 11 0
DWIDTH 12 0
BBX 11 10 0 0
BITMAP
0E00
3180
5E80
5B40
D360
DC60
DE60
5B40
6080
1F00
ENDCHAR

STARTCHAR char175
ENCODING 175
SWIDTH 29 0
DWIDTH 15 0
BBX 0 0 0 0
BITMAP
ENDCHAR

STARTCHAR char176
ENCODING 176
SWIDTH 24 0
DWIDTH 4 0
BBX 6 5 -1 5
BITMAP
30
48
CC
48
30
ENDCHAR

STARTCHAR char177
ENCODING 177
SWIDTH 49 0
DWIDTH 8 0
BBX 8 9 0 0
BITMAP
18
18
18
FF
18
18
18
00
FF
ENDCHAR

STARTCHAR char178
ENCODING 178
SWIDTH 29 0
DWIDTH 15 0
BBX 0 0 0 0
BITMAP
ENDCHAR

STARTCHAR char179
ENCODING 179
SWIDTH 29 0
DWIDTH 15 0
BBX 0 0 0 0
BITMAP
ENDCHAR

STARTCHAR char180
ENCODING 180
SWIDTH 0 0
DWIDTH 0 0
BBX 3 2 -1 8
BITMAP
60
C0
ENDCHAR

STARTCHAR char181
ENCODING 181
SWIDTH 29 0
DWIDTH 15 0
BBX 0 0 0 0
BITMAP
ENDCHAR

STARTCHAR char182
ENCODING 182
SWIDTH 61 0
DWIDTH 10 0
BBX 7 12 1 -2
BITMAP
3E
76
F6
F6
76
36
36
36
36
36
36
36
ENDCHAR

STARTCHAR char183
ENCODING 183
SWIDTH 18 0
DWIDTH 3 0
BBX 2 2 0 3
BITMAP
C0
C0
ENDCHAR

STARTCHAR char184
ENCODING 184
SWIDTH 0 0
DWIDTH 0 0
BBX 4 3 -2 -3
BITMAP
20
30
60
ENDCHAR

STARTCHAR char186
ENCODING 186
SWIDTH 0 0
DWIDTH 0 0
BBX 6 2 -3 11
BITMAP
78
90
ENDCHAR

STARTCHAR char187
ENCODING 187
SWIDTH 49 0
DWIDTH 8 0
BBX 6 6 0 1
BITMAP
48
48
24
6C
48
48
ENDCHAR

STARTCHAR char188
ENCODING 188
SWIDTH 29 0
DWIDTH 15 0
BBX 0 0 0 0
BITMAP
ENDCHAR

STARTCHAR char189
ENCODING 189
SWIDTH 29 0
DWIDTH 15 0
BBX 0 0 0 0
BITMAP
ENDCHAR

STARTCHAR char191
ENCODING 191
SWIDTH 43 0
DWIDTH 7 0
BBX 6 10 0 0
BITMAP
30
30
00
30
30
60
E0
CC
EC
78
ENDCHAR

STARTCHAR char192
ENCODING 192
SWIDTH 61 0
DWIDTH 10 0
BBX 9 13 0 0
BITMAP
3800
0C00
0000
0800
0800
1C00
1C00
2E00
2600
3E00
4700
4300
C780
ENDCHAR

STARTCHAR char193
ENCODING 193
SWIDTH 61 0
DWIDTH 10 0
BBX 9 13 0 0
BITMAP
0C00
1800
0000
0800
0800
1C00
1C00
2E00
2600
3E00
4700
4300
C780
ENDCHAR

STARTCHAR char194
ENCODING 194
SWIDTH 61 0
DWIDTH 10 0
BBX 9 13 0 0
BITMAP
1C00
2600
0000
0800
0800
1C00
1C00
2E00
2600
3E00
4700
4300
C780
ENDCHAR

STARTCHAR char195
ENCODING 195
SWIDTH 61 0
DWIDTH 10 0
BBX 9 13 0 0
BITMAP
3E00
2C00
0000
0800
0800
1C00
1C00
2E00
2600
3E00
4700
4300
C780
ENDCHAR

STARTCHAR char196
ENCODING 196
SWIDTH 61 0
DWIDTH 10 0
BBX 9 13 0 0
BITMAP
3600
3600
0800
0800
0800
1C00
1C00
1C00
2E00
3E00
4700
4700
E780
ENDCHAR

STARTCHAR char197
ENCODING 197
SWIDTH 61 0
DWIDTH 10 0
BBX 9 14 0 0
BITMAP
3C00
3C00
3C00
0800
0800
1800
1C00
2C00
2C00
2E00
3E00
4700
4F00
C780
ENDCHAR

STARTCHAR char198
ENCODING 198
SWIDTH 23 0
DWIDTH 14 0
BBX 13 10 0 0
BITMAP
07F0
0B10
0B60
1360
1FE0
2360
2360
4308
4308
CFF8
ENDCHAR

STARTCHAR char199
ENCODING 199
SWIDTH 61 0
DWIDTH 10 0
BBX 8 14 1 -3
BITMAP
01
3F
61
41
C0
C0
C0
C0
41
63
3C
10
18
30
ENDCHAR

STARTCHAR char200
ENCODING 200
SWIDTH 61 0
DWIDTH 10 0
BBX 8 13 0 0
BITMAP
38
0C
00
FF
61
64
64
7C
64
64
61
61
FF
ENDCHAR

STARTCHAR char201
ENCODING 201
SWIDTH 61 0
DWIDTH 10 0
BBX 8 13 0 0
BITMAP
0C
18
00
FF
61
64
64
7C
64
64
61
61
FF
ENDCHAR

STARTCHAR char202
ENCODING 202
SWIDTH 61 0
DWIDTH 10 0
BBX 8 13 0 0
BITMAP
3C
26
00
FF
61
64
64
7C
64
64
61
61
FF
ENDCHAR

STARTCHAR char203
ENCODING 203
SWIDTH 61 0
DWIDTH 10 0
BBX 8 13 0 0
BITMAP
66
66
00
FF
61
64
64
7C
64
64
61
61
FF
ENDCHAR

STARTCHAR char204
ENCODING 204
SWIDTH 30 0
DWIDTH 5 0
BBX 5 13 -1 0
BITMAP
70
10
00
38
30
30
30
30
30
30
30
30
F8
ENDCHAR

STARTCHAR char205
ENCODING 205
SWIDTH 30 0
DWIDTH 5 0
BBX 5 13 0 0
BITMAP
30
60
00
78
60
60
60
60
60
60
60
60
F8
ENDCHAR

STARTCHAR char206
ENCODING 206
SWIDTH 30 0
DWIDTH 5 0
BBX 5 13 0 0
BITMAP
70
D8
00
78
30
30
30
30
30
30
30
30
F8
ENDCHAR

STARTCHAR char207
ENCODING 207
SWIDTH 30 0
DWIDTH 5 0
BBX 6 13 -1 0
BITMAP
4C
4C
00
3C
30
30
30
30
30
30
30
30
7C
ENDCHAR

STARTCHAR char208
ENCODING 208
SWIDTH 29 0
DWIDTH 15 0
BBX 0 0 0 0
BITMAP
ENDCHAR

STARTCHAR char209
ENCODING 209
SWIDTH 5 0
DWIDTH 11 0
BBX 10 13 0 0
BITMAP
1D00
1E00
0000
7180
F0C0
D880
DC80
CE80
C680
C380
C380
C180
E080
ENDCHAR

STARTCHAR char210
ENCODING 210
SWIDTH 11 0
DWIDTH 12 0
BBX 10 13 0 0
BITMAP
0C00
0600
0000
3F00
6180
E0C0
C0C0
C0C0
C0C0
E0C0
6080
7180
1E00
ENDCHAR

STARTCHAR char211
ENCODING 211
SWIDTH 11 0
DWIDTH 12 0
BBX 10 13 0 0
BITMAP
0600
0C00
0000
3F00
6180
E0C0
C0C0
C0C0
C0C0
E0C0
6080
7180
1E00
ENDCHAR

STARTCHAR char212
ENCODING 212
SWIDTH 11 0
DWIDTH 12 0
BBX 10 13 0 0
BITMAP
0E00
1B00
0000
3F00
6180
E0C0
C0C0
C0C0
C0C0
E0C0
6080
7180
1E00
ENDCHAR

STARTCHAR char213
ENCODING 213
SWIDTH 11 0
DWIDTH 12 0
BBX 10 13 0 0
BITMAP
0D00
1E00
0000
3F00
6180
E0C0
C0C0
C0C0
C0C0
E0C0
6080
7180
1E00
ENDCHAR

STARTCHAR char214
ENCODING 214
SWIDTH 11 0
DWIDTH 12 0
BBX 11 13 0 0
BITMAP
1B00
1B00
0E00
3180
71C0
60C0
E0E0
E0E0
E0E0
E0C0
61C0
3180
1F00
ENDCHAR

STARTCHAR char215
ENCODING 215
SWIDTH 29 0
DWIDTH 15 0
BBX 0 0 0 0
BITMAP
ENDCHAR

STARTCHAR char216
ENCODING 216
SWIDTH 11 0
DWIDTH 12 0
BBX 10 11 0 0
BITMAP
0080
3F80
6080
61C0
C2C0
C4C0
C8C0
F0C0
6080
6180
BE00
ENDCHAR

STARTCHAR char217
ENCODING 217
SWIDTH 5 0
DWIDTH 11 0
BBX 10 13 0 0
BITMAP
1C00
0400
0000
6080
6080
6080
6080
60C0
60C0
60C0
60C0
7180
1E00
ENDCHAR

STARTCHAR char218
ENCODING 218
SWIDTH 5 0
DWIDTH 11 0
BBX 10 13 0 0
BITMAP
0E00
0C00
0000
6080
6080
6080
6080
60C0
60C0
60C0
60C0
7180
1E00
ENDCHAR

STARTCHAR char219
ENCODING 219
SWIDTH 5 0
DWIDTH 11 0
BBX 10 13 0 0
BITMAP
1C00
1200
0000
6080
6080
6080
6080
60C0
60C0
60C0
60C0
7180
1E00
ENDCHAR

STARTCHAR char220
ENCODING 220
SWIDTH 5 0
DWIDTH 11 0
BBX 10 13 0 0
BITMAP
1300
1300
0000
61C0
6080
6080
6080
6080
6080
6080
6080
7100
3E00
ENDCHAR

STARTCHAR char221
ENCODING 221
SWIDTH 29 0
DWIDTH 15 0
BBX 0 0 0 0
BITMAP
ENDCHAR

STARTCHAR char222
ENCODING 222
SWIDTH 29 0
DWIDTH 15 0
BBX 0 0 0 0
BITMAP
ENDCHAR

STARTCHAR char223
ENCODING 223
SWIDTH 49 0
DWIDTH 8 0
BBX 6 10 0 0
BITMAP
78
6C
68
68
68
6C
6C
6C
6C
E8
ENDCHAR

STARTCHAR char224
ENCODING 224
SWIDTH 43 0
DWIDTH 7 0
BBX 7 10 0 0
BITMAP
60
30
00
78
CC
CC
3C
4C
DC
EC
ENDCHAR

STARTCHAR char225
ENCODING 225
SWIDTH 43 0
DWIDTH 7 0
BBX 7 10 0 0
BITMAP
18
30
00
78
CC
CC
3C
4C
DC
EC
ENDCHAR

STARTCHAR char226
ENCODING 226
SWIDTH 43 0
DWIDTH 7 0
BBX 7 10 0 0
BITMAP
30
48
00
78
CC
CC
3C
4C
DC
EC
ENDCHAR

STARTCHAR char227
ENCODING 227
SWIDTH 43 0
DWIDTH 7 0
BBX 7 10 0 0
BITMAP
7C
98
00
78
CC
CC
3C
4C
DC
EC
ENDCHAR

STARTCHAR char228
ENCODING 228
SWIDTH 43 0
DWIDTH 7 0
BBX 7 10 0 0
BITMAP
CC
4C
00
78
CC
CC
3C
CC
FC
EC
ENDCHAR

STARTCHAR char229
ENCODING 229
SWIDTH 43 0
DWIDTH 7 0
BBX 7 10 0 0
BITMAP
38
28
38
78
CC
CC
3C
CC
FE
EC
ENDCHAR

STARTCHAR char230
ENCODING 230
SWIDTH 61 0
DWIDTH 10 0
BBX 9 7 0 0
BITMAP
7F00
D900
5F80
7800
D800
DD80
EE00
ENDCHAR

STARTCHAR char231
ENCODING 231
SWIDTH 36 0
DWIDTH 6 0
BBX 6 10 0 -3
BITMAP
78
4C
C4
C0
E0
F4
78
10
18
70
ENDCHAR

STARTCHAR char232
ENCODING 232
SWIDTH 43 0
DWIDTH 7 0
BBX 6 10 0 0
BITMAP
60
20
00
38
4C
CC
FC
C0
E4
78
ENDCHAR

STARTCHAR char233
ENCODING 233
SWIDTH 43 0
DWIDTH 7 0
BBX 6 10 0 0
BITMAP
18
30
00
38
4C
CC
FC
C0
E4
78
ENDCHAR

STARTCHAR char234
ENCODING 234
SWIDTH 43 0
DWIDTH 7 0
BBX 6 10 0 0
BITMAP
30
78
00
38
4C
CC
FC
C0
E4
78
ENDCHAR

STARTCHAR char235
ENCODING 235
SWIDTH 43 0
DWIDTH 7 0
BBX 6 10 0 0
BITMAP
CC
CC
00
38
44
C4
FC
C0
E4
78
ENDCHAR

STARTCHAR char236
ENCODING 236
SWIDTH 24 0
DWIDTH 4 0
BBX 4 10 0 0
BITMAP
C0
40
00
E0
60
60
60
60
60
F0
ENDCHAR

STARTCHAR char237
ENCODING 237
SWIDTH 24 0
DWIDTH 4 0
BBX 4 10 0 0
BITMAP
20
60
00
E0
60
60
60
60
60
F0
ENDCHAR

STARTCHAR char238
ENCODING 238
SWIDTH 24 0
DWIDTH 4 0
BBX 5 10 -1 0
BITMAP
30
58
00
70
30
30
30
30
30
78
ENDCHAR

STARTCHAR char239
ENCODING 239
SWIDTH 24 0
DWIDTH 4 0
BBX 6 10 -1 0
BITMAP
C8
C8
00
70
30
30
30
30
30
78
ENDCHAR

STARTCHAR char241
ENCODING 241
SWIDTH 49 0
DWIDTH 8 0
BBX 7 10 0 0
BITMAP
34
58
00
F8
6C
6C
6C
6C
6C
EE
ENDCHAR

STARTCHAR char242
ENCODING 242
SWIDTH 43 0
DWIDTH 7 0
BBX 6 10 0 0
BITMAP
60
30
00
78
CC
CC
CC
CC
68
38
ENDCHAR

STARTCHAR char243
ENCODING 243
SWIDTH 43 0
DWIDTH 7 0
BBX 6 10 0 0
BITMAP
18
30
00
78
CC
CC
CC
CC
68
38
ENDCHAR

STARTCHAR char244
ENCODING 244
SWIDTH 43 0
DWIDTH 7 0
BBX 6 10 0 0
BITMAP
30
78
00
78
CC
CC
CC
CC
68
38
ENDCHAR

STARTCHAR char245
ENCODING 245
SWIDTH 43 0
DWIDTH 7 0
BBX 6 10 0 0
BITMAP
78
98
00
78
CC
CC
CC
CC
68
38
ENDCHAR

STARTCHAR char246
ENCODING 246
SWIDTH 43 0
DWIDTH 7 0
BBX 6 10 0 0
BITMAP
48
48
00
78
CC
CC
CC
CC
48
38
ENDCHAR

STARTCHAR char247
ENCODING 247
SWIDTH 49 0
DWIDTH 8 0
BBX 7 6 0 1
BITMAP
18
18
00
FE
18
18
ENDCHAR

STARTCHAR char248
ENCODING 248
SWIDTH 43 0
DWIDTH 7 0
BBX 6 7 0 0
BITMAP
7C
CC
CC
DC
EC
48
F8
ENDCHAR

STARTCHAR char249
ENCODING 249
SWIDTH 49 0
DWIDTH 8 0
BBX 7 10 0 0
BITMAP
60
30
00
CC
CC
CC
CC
CC
DC
EE
ENDCHAR

STARTCHAR char250
ENCODING 250
SWIDTH 49 0
DWIDTH 8 0
BBX 7 10 0 0
BITMAP
18
30
00
CC
CC
CC
CC
CC
DC
EE
ENDCHAR

STARTCHAR char251
ENCODING 251
SWIDTH 49 0
DWIDTH 8 0
BBX 7 10 0 0
BITMAP
30
68
00
CC
CC
CC
CC
CC
DC
EE
ENDCHAR

STARTCHAR char252
ENCODING 252
SWIDTH 49 0
DWIDTH 8 0
BBX 7 10 0 0
BITMAP
CC
C8
00
DC
CC
CC
CC
CC
DC
EE
ENDCHAR

STARTCHAR char255
ENCODING 255
SWIDTH 43 0
DWIDTH 7 0
BBX 6 12 0 -2
BITMAP
CC
CC
00
E4
64
74
34
38
30
10
B0
C0
ENDCHAR
ENDFONT
